<mxfile host="65bd71144e">
    <diagram id="P4tzZLlvhhQIY5BLS-CY" name="adapter board">
        <mxGraphModel dx="1683" dy="1113" grid="1" gridSize="10" guides="1" tooltips="1" connect="1" arrows="1" fold="1" page="1" pageScale="1" pageWidth="1169" pageHeight="827" math="0" shadow="0">
            <root>
                <mxCell id="0"/>
                <mxCell id="1" parent="0"/>
                <mxCell id="113" value="" style="endArrow=classic;html=1;entryX=1;entryY=0.5;entryDx=0;entryDy=0;align=left;" edge="1" parent="1">
                    <mxGeometry width="50" height="50" relative="1" as="geometry">
                        <mxPoint x="860" y="531" as="sourcePoint"/>
                        <mxPoint x="720" y="531" as="targetPoint"/>
                    </mxGeometry>
                </mxCell>
                <mxCell id="114" value="" style="endArrow=classic;html=1;entryX=1;entryY=0.5;entryDx=0;entryDy=0;align=left;" edge="1" parent="1">
                    <mxGeometry width="50" height="50" relative="1" as="geometry">
                        <mxPoint x="860" y="545.66" as="sourcePoint"/>
                        <mxPoint x="720" y="545.66" as="targetPoint"/>
                    </mxGeometry>
                </mxCell>
                <mxCell id="122" value="" style="group" vertex="1" connectable="0" parent="1">
                    <mxGeometry x="860" y="517" width="60" height="74" as="geometry"/>
                </mxCell>
                <mxCell id="118" value="UART_TXD" style="text;html=1;strokeColor=none;fillColor=none;align=left;verticalAlign=middle;whiteSpace=wrap;rounded=0;" vertex="1" parent="122">
                    <mxGeometry width="60" height="30" as="geometry"/>
                </mxCell>
                <mxCell id="119" value="UART_RXD" style="text;html=1;strokeColor=none;fillColor=none;align=left;verticalAlign=middle;whiteSpace=wrap;rounded=0;" vertex="1" parent="122">
                    <mxGeometry y="14" width="60" height="30" as="geometry"/>
                </mxCell>
                <mxCell id="123" value="" style="group" vertex="1" connectable="0" parent="1">
                    <mxGeometry x="390" y="109" width="330" height="610" as="geometry"/>
                </mxCell>
                <mxCell id="6" value="FT4232HL" style="rounded=0;whiteSpace=wrap;html=1;movable=1;resizable=1;rotatable=1;deletable=1;editable=1;connectable=1;" vertex="1" parent="123">
                    <mxGeometry width="330" height="610" as="geometry"/>
                </mxCell>
                <mxCell id="18" value="" style="group" vertex="1" connectable="0" parent="123">
                    <mxGeometry x="270" width="60" height="137" as="geometry"/>
                </mxCell>
                <mxCell id="7" value="ADBUS1" style="text;html=1;strokeColor=none;fillColor=none;align=center;verticalAlign=middle;whiteSpace=wrap;rounded=0;" vertex="1" parent="18">
                    <mxGeometry y="15" width="60" height="30" as="geometry"/>
                </mxCell>
                <mxCell id="8" value="ADBUS0" style="text;html=1;strokeColor=none;fillColor=none;align=center;verticalAlign=middle;whiteSpace=wrap;rounded=0;" vertex="1" parent="18">
                    <mxGeometry width="60" height="30" as="geometry"/>
                </mxCell>
                <mxCell id="9" value="ADBUS3" style="text;html=1;strokeColor=none;fillColor=none;align=center;verticalAlign=middle;whiteSpace=wrap;rounded=0;" vertex="1" parent="18">
                    <mxGeometry y="46" width="60" height="30" as="geometry"/>
                </mxCell>
                <mxCell id="10" value="ADBUS2" style="text;html=1;strokeColor=none;fillColor=none;align=center;verticalAlign=middle;whiteSpace=wrap;rounded=0;" vertex="1" parent="18">
                    <mxGeometry y="31" width="60" height="30" as="geometry"/>
                </mxCell>
                <mxCell id="11" value="ADBUS5" style="text;html=1;strokeColor=none;fillColor=none;align=center;verticalAlign=middle;whiteSpace=wrap;rounded=0;" vertex="1" parent="18">
                    <mxGeometry y="76" width="60" height="30" as="geometry"/>
                </mxCell>
                <mxCell id="12" value="ADBUS4" style="text;html=1;strokeColor=none;fillColor=none;align=center;verticalAlign=middle;whiteSpace=wrap;rounded=0;" vertex="1" parent="18">
                    <mxGeometry y="61" width="60" height="30" as="geometry"/>
                </mxCell>
                <mxCell id="14" value="ADBUS6" style="text;html=1;strokeColor=none;fillColor=none;align=center;verticalAlign=middle;whiteSpace=wrap;rounded=0;" vertex="1" parent="18">
                    <mxGeometry y="92" width="60" height="30" as="geometry"/>
                </mxCell>
                <mxCell id="15" value="ADBUS7" style="text;html=1;strokeColor=none;fillColor=none;align=center;verticalAlign=middle;whiteSpace=wrap;rounded=0;" vertex="1" parent="18">
                    <mxGeometry y="107" width="60" height="30" as="geometry"/>
                </mxCell>
                <mxCell id="65" value="" style="group" vertex="1" connectable="0" parent="123">
                    <mxGeometry x="270" y="136" width="60" height="136" as="geometry"/>
                </mxCell>
                <mxCell id="20" value="BDBUS1" style="text;html=1;strokeColor=none;fillColor=none;align=center;verticalAlign=middle;whiteSpace=wrap;rounded=0;" vertex="1" parent="65">
                    <mxGeometry y="15" width="60" height="30" as="geometry"/>
                </mxCell>
                <mxCell id="21" value="BDBUS0" style="text;html=1;strokeColor=none;fillColor=none;align=center;verticalAlign=middle;whiteSpace=wrap;rounded=0;" vertex="1" parent="65">
                    <mxGeometry width="60" height="30" as="geometry"/>
                </mxCell>
                <mxCell id="22" value="BDBUS3" style="text;html=1;strokeColor=none;fillColor=none;align=center;verticalAlign=middle;whiteSpace=wrap;rounded=0;" vertex="1" parent="65">
                    <mxGeometry y="45" width="60" height="30" as="geometry"/>
                </mxCell>
                <mxCell id="23" value="BDBUS2" style="text;html=1;strokeColor=none;fillColor=none;align=center;verticalAlign=middle;whiteSpace=wrap;rounded=0;" vertex="1" parent="65">
                    <mxGeometry y="30" width="60" height="30" as="geometry"/>
                </mxCell>
                <mxCell id="24" value="BDBUS5" style="text;html=1;strokeColor=none;fillColor=none;align=center;verticalAlign=middle;whiteSpace=wrap;rounded=0;" vertex="1" parent="65">
                    <mxGeometry y="76" width="60" height="30" as="geometry"/>
                </mxCell>
                <mxCell id="25" value="BDBUS4" style="text;html=1;strokeColor=none;fillColor=none;align=center;verticalAlign=middle;whiteSpace=wrap;rounded=0;" vertex="1" parent="65">
                    <mxGeometry y="61" width="60" height="30" as="geometry"/>
                </mxCell>
                <mxCell id="26" value="BDBUS6" style="text;html=1;strokeColor=none;fillColor=none;align=center;verticalAlign=middle;whiteSpace=wrap;rounded=0;" vertex="1" parent="65">
                    <mxGeometry y="91" width="60" height="30" as="geometry"/>
                </mxCell>
                <mxCell id="27" value="BDBUS7" style="text;html=1;strokeColor=none;fillColor=none;align=center;verticalAlign=middle;whiteSpace=wrap;rounded=0;" vertex="1" parent="65">
                    <mxGeometry y="106" width="60" height="30" as="geometry"/>
                </mxCell>
                <mxCell id="66" value="" style="group" vertex="1" connectable="0" parent="123">
                    <mxGeometry x="270" y="273" width="60" height="135" as="geometry"/>
                </mxCell>
                <mxCell id="46" value="CDBUS1" style="text;html=1;strokeColor=none;fillColor=none;align=center;verticalAlign=middle;whiteSpace=wrap;rounded=0;" vertex="1" parent="66">
                    <mxGeometry y="15" width="60" height="30" as="geometry"/>
                </mxCell>
                <mxCell id="47" value="CDBUS0" style="text;html=1;strokeColor=none;fillColor=none;align=center;verticalAlign=middle;whiteSpace=wrap;rounded=0;" vertex="1" parent="66">
                    <mxGeometry width="60" height="30" as="geometry"/>
                </mxCell>
                <mxCell id="48" value="CDBUS3" style="text;html=1;strokeColor=none;fillColor=none;align=center;verticalAlign=middle;whiteSpace=wrap;rounded=0;" vertex="1" parent="66">
                    <mxGeometry y="45" width="60" height="30" as="geometry"/>
                </mxCell>
                <mxCell id="49" value="CDBUS2" style="text;html=1;strokeColor=none;fillColor=none;align=center;verticalAlign=middle;whiteSpace=wrap;rounded=0;" vertex="1" parent="66">
                    <mxGeometry y="30" width="60" height="30" as="geometry"/>
                </mxCell>
                <mxCell id="50" value="CDBUS5" style="text;html=1;strokeColor=none;fillColor=none;align=center;verticalAlign=middle;whiteSpace=wrap;rounded=0;" vertex="1" parent="66">
                    <mxGeometry y="75" width="60" height="30" as="geometry"/>
                </mxCell>
                <mxCell id="51" value="CDBUS4" style="text;html=1;strokeColor=none;fillColor=none;align=center;verticalAlign=middle;whiteSpace=wrap;rounded=0;" vertex="1" parent="66">
                    <mxGeometry y="60" width="60" height="30" as="geometry"/>
                </mxCell>
                <mxCell id="52" value="CDBUS6" style="text;html=1;strokeColor=none;fillColor=none;align=center;verticalAlign=middle;whiteSpace=wrap;rounded=0;" vertex="1" parent="66">
                    <mxGeometry y="90" width="60" height="30" as="geometry"/>
                </mxCell>
                <mxCell id="53" value="CDBUS7" style="text;html=1;strokeColor=none;fillColor=none;align=center;verticalAlign=middle;whiteSpace=wrap;rounded=0;" vertex="1" parent="66">
                    <mxGeometry y="105" width="60" height="30" as="geometry"/>
                </mxCell>
                <mxCell id="67" value="" style="group" vertex="1" connectable="0" parent="123">
                    <mxGeometry x="270" y="408" width="60" height="136" as="geometry"/>
                </mxCell>
                <mxCell id="54" value="DDBUS1" style="text;html=1;strokeColor=none;fillColor=none;align=center;verticalAlign=middle;whiteSpace=wrap;rounded=0;" vertex="1" parent="67">
                    <mxGeometry y="15" width="60" height="30" as="geometry"/>
                </mxCell>
                <mxCell id="55" value="DDBUS0" style="text;html=1;strokeColor=none;fillColor=none;align=center;verticalAlign=middle;whiteSpace=wrap;rounded=0;" vertex="1" parent="67">
                    <mxGeometry width="60" height="30" as="geometry"/>
                </mxCell>
                <mxCell id="56" value="DDBUS3" style="text;html=1;strokeColor=none;fillColor=none;align=center;verticalAlign=middle;whiteSpace=wrap;rounded=0;" vertex="1" parent="67">
                    <mxGeometry y="45" width="60" height="30" as="geometry"/>
                </mxCell>
                <mxCell id="57" value="DDBUS2" style="text;html=1;strokeColor=none;fillColor=none;align=center;verticalAlign=middle;whiteSpace=wrap;rounded=0;" vertex="1" parent="67">
                    <mxGeometry y="30" width="60" height="30" as="geometry"/>
                </mxCell>
                <mxCell id="58" value="DDBUS5" style="text;html=1;strokeColor=none;fillColor=none;align=center;verticalAlign=middle;whiteSpace=wrap;rounded=0;" vertex="1" parent="67">
                    <mxGeometry y="76" width="60" height="30" as="geometry"/>
                </mxCell>
                <mxCell id="59" value="DDBUS4" style="text;html=1;strokeColor=none;fillColor=none;align=center;verticalAlign=middle;whiteSpace=wrap;rounded=0;" vertex="1" parent="67">
                    <mxGeometry y="61" width="60" height="30" as="geometry"/>
                </mxCell>
                <mxCell id="60" value="DDBUS6" style="text;html=1;strokeColor=none;fillColor=none;align=center;verticalAlign=middle;whiteSpace=wrap;rounded=0;" vertex="1" parent="67">
                    <mxGeometry y="91" width="60" height="30" as="geometry"/>
                </mxCell>
                <mxCell id="61" value="DDBUS7" style="text;html=1;strokeColor=none;fillColor=none;align=center;verticalAlign=middle;whiteSpace=wrap;rounded=0;" vertex="1" parent="67">
                    <mxGeometry y="106" width="60" height="30" as="geometry"/>
                </mxCell>
                <mxCell id="77" value="" style="group" vertex="1" connectable="0" parent="123">
                    <mxGeometry x="270" y="560" width="60" height="45" as="geometry"/>
                </mxCell>
                <mxCell id="69" value="SUSPEND" style="text;html=1;strokeColor=none;fillColor=none;align=right;verticalAlign=middle;whiteSpace=wrap;rounded=0;" vertex="1" parent="77">
                    <mxGeometry y="15" width="60" height="30" as="geometry"/>
                </mxCell>
                <mxCell id="70" value="PWREN" style="text;html=1;strokeColor=none;fillColor=none;align=right;verticalAlign=middle;whiteSpace=wrap;rounded=0;" vertex="1" parent="77">
                    <mxGeometry width="60" height="30" as="geometry"/>
                </mxCell>
                <mxCell id="81" value="GND * 8" style="text;html=1;strokeColor=none;fillColor=none;align=left;verticalAlign=middle;whiteSpace=wrap;rounded=0;direction=east;rotation=-90;" vertex="1" parent="123">
                    <mxGeometry x="135" y="565" width="60" height="30" as="geometry"/>
                </mxCell>
                <mxCell id="83" value="AGND" style="text;html=1;strokeColor=none;fillColor=none;align=left;verticalAlign=middle;whiteSpace=wrap;rounded=0;direction=east;rotation=-90;" vertex="1" parent="123">
                    <mxGeometry x="100" y="565" width="60" height="30" as="geometry"/>
                </mxCell>
                <mxCell id="92" value="" style="group;align=left;horizontal=1;flipH=0;" vertex="1" connectable="0" parent="123">
                    <mxGeometry x="100" y="1" width="115" height="70" as="geometry"/>
                </mxCell>
                <mxCell id="84" value="VCCIO * 4" style="text;html=1;strokeColor=none;fillColor=none;align=left;verticalAlign=middle;whiteSpace=wrap;rounded=0;direction=east;rotation=90;" vertex="1" parent="92">
                    <mxGeometry x="70" y="14" width="60" height="30" as="geometry"/>
                </mxCell>
                <mxCell id="85" value="VCORE * 3" style="text;html=1;strokeColor=none;fillColor=none;align=left;verticalAlign=middle;whiteSpace=wrap;rounded=0;direction=east;rotation=90;" vertex="1" parent="92">
                    <mxGeometry x="37" y="20" width="70" height="30" as="geometry"/>
                </mxCell>
                <mxCell id="86" value="VPLL" style="text;html=1;strokeColor=none;fillColor=none;align=left;verticalAlign=middle;whiteSpace=wrap;rounded=0;direction=east;rotation=90;" vertex="1" parent="92">
                    <mxGeometry x="8" y="20" width="70" height="30" as="geometry"/>
                </mxCell>
                <mxCell id="88" value="VPHY" style="text;html=1;strokeColor=none;fillColor=none;align=left;verticalAlign=middle;whiteSpace=wrap;rounded=0;direction=east;rotation=90;" vertex="1" parent="92">
                    <mxGeometry x="-20" y="20" width="70" height="30" as="geometry"/>
                </mxCell>
                <mxCell id="93" value="VREGIN" style="text;html=1;strokeColor=none;fillColor=none;align=left;verticalAlign=middle;whiteSpace=wrap;rounded=0;direction=east;rotation=0;" vertex="1" parent="123">
                    <mxGeometry y="51" width="60" height="30" as="geometry"/>
                </mxCell>
                <mxCell id="94" value="VREGOUT" style="text;html=1;strokeColor=none;fillColor=none;align=left;verticalAlign=middle;whiteSpace=wrap;rounded=0;direction=east;rotation=0;" vertex="1" parent="123">
                    <mxGeometry y="71" width="60" height="30" as="geometry"/>
                </mxCell>
                <mxCell id="104" value="TEST" style="text;html=1;strokeColor=none;fillColor=none;align=left;verticalAlign=middle;whiteSpace=wrap;rounded=0;direction=east;rotation=0;" vertex="1" parent="123">
                    <mxGeometry y="491" width="60" height="30" as="geometry"/>
                </mxCell>
                <mxCell id="105" value="" style="group" vertex="1" connectable="0" parent="123">
                    <mxGeometry y="131" width="60" height="90" as="geometry"/>
                </mxCell>
                <mxCell id="95" value="DM" style="text;html=1;strokeColor=none;fillColor=none;align=left;verticalAlign=middle;whiteSpace=wrap;rounded=0;direction=east;rotation=0;" vertex="1" parent="105">
                    <mxGeometry width="60" height="30" as="geometry"/>
                </mxCell>
                <mxCell id="96" value="DP" style="text;html=1;strokeColor=none;fillColor=none;align=left;verticalAlign=middle;whiteSpace=wrap;rounded=0;direction=east;rotation=0;" vertex="1" parent="105">
                    <mxGeometry y="20" width="60" height="30" as="geometry"/>
                </mxCell>
                <mxCell id="97" value="REF&lt;span style=&quot;color: rgba(0, 0, 0, 0); font-family: monospace; font-size: 0px;&quot;&gt;%3CmxGraphModel%3E%3Croot%3E%3CmxCell%20id%3D%220%22%2F%3E%3CmxCell%20id%3D%221%22%20parent%3D%220%22%2F%3E%3CmxCell%20id%3D%222%22%20value%3D%22DP%22%20style%3D%22text%3Bhtml%3D1%3BstrokeColor%3Dnone%3BfillColor%3Dnone%3Balign%3Dleft%3BverticalAlign%3Dmiddle%3BwhiteSpace%3Dwrap%3Brounded%3D0%3Bdirection%3Deast%3Brotation%3D0%3B%22%20vertex%3D%221%22%20parent%3D%221%22%3E%3CmxGeometry%20x%3D%22220%22%20y%3D%22330%22%20width%3D%2260%22%20height%3D%2230%22%20as%3D%22geometry%22%2F%3E%3C%2FmxCell%3E%3C%2Froot%3E%3C%2FmxGraphModel%3E&lt;/span&gt;" style="text;html=1;strokeColor=none;fillColor=none;align=left;verticalAlign=middle;whiteSpace=wrap;rounded=0;direction=east;rotation=0;" vertex="1" parent="105">
                    <mxGeometry y="40" width="60" height="30" as="geometry"/>
                </mxCell>
                <mxCell id="98" value="RESET#" style="text;html=1;strokeColor=none;fillColor=none;align=left;verticalAlign=middle;whiteSpace=wrap;rounded=0;direction=east;rotation=0;" vertex="1" parent="105">
                    <mxGeometry y="60" width="60" height="30" as="geometry"/>
                </mxCell>
                <mxCell id="108" value="" style="group" vertex="1" connectable="0" parent="123">
                    <mxGeometry y="251" width="60" height="73" as="geometry"/>
                </mxCell>
                <mxCell id="99" value="EECS" style="text;html=1;strokeColor=none;fillColor=none;align=left;verticalAlign=middle;whiteSpace=wrap;rounded=0;direction=east;rotation=0;" vertex="1" parent="108">
                    <mxGeometry width="60" height="30" as="geometry"/>
                </mxCell>
                <mxCell id="100" value="EECLK" style="text;html=1;strokeColor=none;fillColor=none;align=left;verticalAlign=middle;whiteSpace=wrap;rounded=0;direction=east;rotation=0;" vertex="1" parent="108">
                    <mxGeometry y="22" width="60" height="30" as="geometry"/>
                </mxCell>
                <mxCell id="101" value="EEDATA" style="text;html=1;strokeColor=none;fillColor=none;align=left;verticalAlign=middle;whiteSpace=wrap;rounded=0;direction=east;rotation=0;" vertex="1" parent="108">
                    <mxGeometry y="43" width="60" height="30" as="geometry"/>
                </mxCell>
                <mxCell id="109" value="" style="group" vertex="1" connectable="0" parent="123">
                    <mxGeometry y="351" width="60" height="50" as="geometry"/>
                </mxCell>
                <mxCell id="102" value="OSCI" style="text;html=1;strokeColor=none;fillColor=none;align=left;verticalAlign=middle;whiteSpace=wrap;rounded=0;direction=east;rotation=0;" vertex="1" parent="109">
                    <mxGeometry width="60" height="30" as="geometry"/>
                </mxCell>
                <mxCell id="103" value="OSCO" style="text;html=1;strokeColor=none;fillColor=none;align=left;verticalAlign=middle;whiteSpace=wrap;rounded=0;direction=east;rotation=0;" vertex="1" parent="109">
                    <mxGeometry y="20" width="60" height="30" as="geometry"/>
                </mxCell>
                <mxCell id="124" value="" style="endArrow=classic;html=1;entryX=1;entryY=0.5;entryDx=0;entryDy=0;align=left;" edge="1" parent="1">
                    <mxGeometry width="50" height="50" relative="1" as="geometry">
                        <mxPoint x="860" y="123" as="sourcePoint"/>
                        <mxPoint x="720" y="123" as="targetPoint"/>
                    </mxGeometry>
                </mxCell>
                <mxCell id="125" value="" style="endArrow=classic;html=1;entryX=1;entryY=0.5;entryDx=0;entryDy=0;align=left;" edge="1" parent="1">
                    <mxGeometry width="50" height="50" relative="1" as="geometry">
                        <mxPoint x="860" y="137.65999999999985" as="sourcePoint"/>
                        <mxPoint x="720" y="137.65999999999985" as="targetPoint"/>
                    </mxGeometry>
                </mxCell>
                <mxCell id="126" value="" style="endArrow=classic;html=1;entryX=1;entryY=0.5;entryDx=0;entryDy=0;align=left;" edge="1" parent="1">
                    <mxGeometry width="50" height="50" relative="1" as="geometry">
                        <mxPoint x="860" y="153" as="sourcePoint"/>
                        <mxPoint x="720" y="153" as="targetPoint"/>
                    </mxGeometry>
                </mxCell>
                <mxCell id="127" value="" style="endArrow=classic;html=1;entryX=1;entryY=0.5;entryDx=0;entryDy=0;align=left;" edge="1" parent="1">
                    <mxGeometry width="50" height="50" relative="1" as="geometry">
                        <mxPoint x="860" y="167.65999999999985" as="sourcePoint"/>
                        <mxPoint x="720" y="167.65999999999985" as="targetPoint"/>
                    </mxGeometry>
                </mxCell>
                <mxCell id="128" value="" style="group" vertex="1" connectable="0" parent="1">
                    <mxGeometry x="860" y="109" width="60" height="74" as="geometry"/>
                </mxCell>
                <mxCell id="129" value="JTAG_TCK" style="text;html=1;strokeColor=none;fillColor=none;align=left;verticalAlign=middle;whiteSpace=wrap;rounded=0;" vertex="1" parent="128">
                    <mxGeometry width="60" height="30" as="geometry"/>
                </mxCell>
                <mxCell id="130" value="JTAG_TDI" style="text;html=1;strokeColor=none;fillColor=none;align=left;verticalAlign=middle;whiteSpace=wrap;rounded=0;" vertex="1" parent="128">
                    <mxGeometry y="14" width="60" height="30" as="geometry"/>
                </mxCell>
                <mxCell id="131" value="JTAG_TDO" style="text;html=1;strokeColor=none;fillColor=none;align=left;verticalAlign=middle;whiteSpace=wrap;rounded=0;" vertex="1" parent="128">
                    <mxGeometry y="30" width="60" height="30" as="geometry"/>
                </mxCell>
                <mxCell id="132" value="JTAG_TMS" style="text;html=1;strokeColor=none;fillColor=none;align=left;verticalAlign=middle;whiteSpace=wrap;rounded=0;" vertex="1" parent="128">
                    <mxGeometry y="44" width="60" height="30" as="geometry"/>
                </mxCell>
                <mxCell id="134" value="&lt;span style=&quot;color: rgb(0, 0, 0); font-family: Helvetica; font-size: 12px; font-style: normal; font-variant-ligatures: normal; font-variant-caps: normal; font-weight: 400; letter-spacing: normal; orphans: 2; text-align: left; text-indent: 0px; text-transform: none; widows: 2; word-spacing: 0px; -webkit-text-stroke-width: 0px; background-color: rgb(251, 251, 251); text-decoration-thickness: initial; text-decoration-style: initial; text-decoration-color: initial; float: none; display: inline !important;&quot;&gt;VCCO_JTAG_ON&lt;/span&gt;" style="text;whiteSpace=wrap;html=1;" vertex="1" parent="1">
                    <mxGeometry x="850" y="210" width="100" height="40" as="geometry"/>
                </mxCell>
                <mxCell id="136" value="" style="endArrow=classic;html=1;exitX=0;exitY=0.5;exitDx=0;exitDy=0;startArrow=none;" edge="1" parent="1" source="138">
                    <mxGeometry width="50" height="50" relative="1" as="geometry">
                        <mxPoint x="320" y="460" as="sourcePoint"/>
                        <mxPoint x="300" y="475" as="targetPoint"/>
                    </mxGeometry>
                </mxCell>
                <mxCell id="137" style="edgeStyle=elbowEdgeStyle;html=1;exitX=0;exitY=0.5;exitDx=0;exitDy=0;rounded=0;entryX=0.5;entryY=1;entryDx=0;entryDy=0;endArrow=none;endFill=0;" edge="1" parent="1" source="103" target="138">
                    <mxGeometry relative="1" as="geometry">
                        <mxPoint x="330" y="490" as="targetPoint"/>
                        <Array as="points">
                            <mxPoint x="325" y="490"/>
                        </Array>
                    </mxGeometry>
                </mxCell>
                <mxCell id="139" value="" style="endArrow=none;html=1;exitX=0;exitY=0.5;exitDx=0;exitDy=0;" edge="1" parent="1" source="102" target="138">
                    <mxGeometry width="50" height="50" relative="1" as="geometry">
                        <mxPoint x="390" y="474.9999999999999" as="sourcePoint"/>
                        <mxPoint x="300" y="474.9999999999999" as="targetPoint"/>
                    </mxGeometry>
                </mxCell>
                <mxCell id="138" value="" style="shape=ellipse;fillColor=#0065FF;strokeColor=none;html=1;sketch=0;" vertex="1" parent="1">
                    <mxGeometry x="319.9999999999999" y="470" width="10" height="10" as="geometry"/>
                </mxCell>
                <mxCell id="140" value="12M&lt;br&gt;20ppm osc" style="rounded=0;whiteSpace=wrap;html=1;" vertex="1" parent="1">
                    <mxGeometry x="180" y="457" width="120" height="60" as="geometry"/>
                </mxCell>
                <mxCell id="141" value="micro usb shell&lt;br&gt;ZX62D_AB_5P8" style="rounded=0;whiteSpace=wrap;html=1;" vertex="1" parent="1">
                    <mxGeometry x="130" y="225" width="120" height="60" as="geometry"/>
                </mxCell>
                <mxCell id="142" value="" style="endArrow=classic;html=1;exitX=0;exitY=0.5;exitDx=0;exitDy=0;startArrow=none;entryX=1;entryY=0.5;entryDx=0;entryDy=0;" edge="1" parent="1" target="141">
                    <mxGeometry width="50" height="50" relative="1" as="geometry">
                        <mxPoint x="319.9999999999999" y="255" as="sourcePoint"/>
                        <mxPoint x="300" y="255" as="targetPoint"/>
                    </mxGeometry>
                </mxCell>
                <mxCell id="143" style="edgeStyle=elbowEdgeStyle;html=1;exitX=0;exitY=0.5;exitDx=0;exitDy=0;rounded=0;entryX=0.5;entryY=1;entryDx=0;entryDy=0;endArrow=none;endFill=0;" edge="1" parent="1">
                    <mxGeometry relative="1" as="geometry">
                        <mxPoint x="324.9999999999999" y="260" as="targetPoint"/>
                        <mxPoint x="390" y="275" as="sourcePoint"/>
                        <Array as="points">
                            <mxPoint x="325" y="270"/>
                        </Array>
                    </mxGeometry>
                </mxCell>
                <mxCell id="144" value="" style="endArrow=none;html=1;exitX=0;exitY=0.5;exitDx=0;exitDy=0;" edge="1" parent="1">
                    <mxGeometry width="50" height="50" relative="1" as="geometry">
                        <mxPoint x="390" y="255" as="sourcePoint"/>
                        <mxPoint x="329.9999999999999" y="255" as="targetPoint"/>
                    </mxGeometry>
                </mxCell>
                <mxCell id="145" value="" style="shape=ellipse;fillColor=#0065FF;strokeColor=none;html=1;sketch=0;" vertex="1" parent="1">
                    <mxGeometry x="319.9999999999999" y="250" width="10" height="10" as="geometry"/>
                </mxCell>
                <mxCell id="147" style="edgeStyle=elbowEdgeStyle;rounded=0;html=1;entryX=1;entryY=0.5;entryDx=0;entryDy=0;endArrow=classic;endFill=1;" edge="1" parent="1" source="146" target="12">
                    <mxGeometry relative="1" as="geometry">
                        <Array as="points">
                            <mxPoint x="850" y="250"/>
                        </Array>
                    </mxGeometry>
                </mxCell>
                <mxCell id="157" style="edgeStyle=orthogonalEdgeStyle;rounded=0;html=1;endArrow=none;endFill=0;startArrow=classic;startFill=1;" edge="1" parent="1" source="146">
                    <mxGeometry relative="1" as="geometry">
                        <mxPoint x="1090" y="250" as="targetPoint"/>
                    </mxGeometry>
                </mxCell>
                <mxCell id="146" value="Comparators&lt;br&gt;MAX9100" style="rounded=0;whiteSpace=wrap;html=1;" vertex="1" parent="1">
                    <mxGeometry x="920" y="285" width="120" height="60" as="geometry"/>
                </mxCell>
                <mxCell id="148" style="edgeStyle=orthogonalEdgeStyle;rounded=0;html=1;endArrow=none;endFill=0;entryX=1;entryY=0.5;entryDx=0;entryDy=0;" edge="1" parent="1" source="81" target="150">
                    <mxGeometry relative="1" as="geometry">
                        <mxPoint x="555" y="780" as="targetPoint"/>
                        <Array as="points">
                            <mxPoint x="555" y="760"/>
                        </Array>
                    </mxGeometry>
                </mxCell>
                <mxCell id="149" style="edgeStyle=elbowEdgeStyle;rounded=0;html=1;endArrow=none;endFill=0;" edge="1" parent="1" source="83" target="150">
                    <mxGeometry relative="1" as="geometry">
                        <mxPoint x="520" y="760" as="targetPoint"/>
                    </mxGeometry>
                </mxCell>
                <mxCell id="151" style="edgeStyle=orthogonalEdgeStyle;rounded=0;html=1;endArrow=classic;endFill=1;" edge="1" parent="1" source="150">
                    <mxGeometry relative="1" as="geometry">
                        <mxPoint x="520" y="800" as="targetPoint"/>
                    </mxGeometry>
                </mxCell>
                <mxCell id="150" value="" style="shape=ellipse;fillColor=#0065FF;strokeColor=none;html=1;sketch=0;" vertex="1" parent="1">
                    <mxGeometry x="515" y="755" width="10" height="10" as="geometry"/>
                </mxCell>
                <mxCell id="152" value="GND" style="text;html=1;strokeColor=none;fillColor=none;align=center;verticalAlign=middle;whiteSpace=wrap;rounded=0;" vertex="1" parent="1">
                    <mxGeometry x="515" y="780" width="60" height="30" as="geometry"/>
                </mxCell>
                <mxCell id="153" style="edgeStyle=orthogonalEdgeStyle;rounded=0;html=1;endArrow=classic;endFill=1;" edge="1" parent="1" source="84">
                    <mxGeometry relative="1" as="geometry">
                        <mxPoint x="590" y="70" as="targetPoint"/>
                    </mxGeometry>
                </mxCell>
                <mxCell id="154" value="USB_POWERED_VCCIO" style="text;html=1;strokeColor=none;fillColor=none;align=center;verticalAlign=middle;whiteSpace=wrap;rounded=0;" vertex="1" parent="1">
                    <mxGeometry x="630" y="79" width="60" height="30" as="geometry"/>
                </mxCell>
                <mxCell id="155" style="edgeStyle=orthogonalEdgeStyle;rounded=0;html=1;endArrow=classic;endFill=1;" edge="1" parent="1" source="85">
                    <mxGeometry relative="1" as="geometry">
                        <mxPoint x="562" y="70" as="targetPoint"/>
                    </mxGeometry>
                </mxCell>
                <mxCell id="156" value="USB_JTAG_VCORE" style="text;html=1;strokeColor=none;fillColor=none;align=center;verticalAlign=middle;whiteSpace=wrap;rounded=0;" vertex="1" parent="1">
                    <mxGeometry x="555" y="40" width="60" height="30" as="geometry"/>
                </mxCell>
                <mxCell id="158" value="&lt;span style=&quot;color: rgb(0, 0, 0); font-family: Helvetica; font-size: 12px; font-style: normal; font-variant-ligatures: normal; font-variant-caps: normal; font-weight: 400; letter-spacing: normal; orphans: 2; text-align: left; text-indent: 0px; text-transform: none; widows: 2; word-spacing: 0px; -webkit-text-stroke-width: 0px; background-color: rgb(251, 251, 251); text-decoration-thickness: initial; text-decoration-style: initial; text-decoration-color: initial; float: none; display: inline !important;&quot;&gt;FPGA_VCC1V8&lt;/span&gt;" style="text;whiteSpace=wrap;html=1;" vertex="1" parent="1">
                    <mxGeometry x="1040" y="220" width="100" height="40" as="geometry"/>
                </mxCell>
            </root>
        </mxGraphModel>
    </diagram>
</mxfile>